<svg version="1.2" xmlns="http://www.w3.org/2000/svg" viewBox="0 0 712 756" width="712" height="756">
	<title>firma_ng</title>
	<style>
		.s0 { opacity: .9;fill: #000000 } 
	</style>
	<path id="Path 0" fill-rule="evenodd" class="s0" d="m333 40.2c3-0.1 12.3 0.4 20.5 1.2 8.3 0.8 17.7 2.1 21 3 3.3 0.8 8.7 2.7 12 4.1 3.3 1.5 9.1 4.3 13 6.2 3.9 2 9.7 5.3 13 7.3 3.3 2 8.6 4.4 11.8 5.3 5.1 1.5 6.1 2.3 9.9 7.6 2.4 3.2 7.8 8.9 12 12.5 4.3 3.6 11.5 11.1 16 16.6 4.6 5.5 8.6 10 9 10 0.5 0 1-0.5 1.3-1 0.3-0.6 1.7-1 3.2-1 1.6-0.1 3.4 0.5 4 1.2 0.7 0.7 1.8 3.1 2.4 5.3 0.5 2.2 1.2 9.8 1.3 17 0.2 7.2 0.6 13.6 1 14.2 0.3 0.7 1 1.3 1.6 1.3 0.6 0 1.5-1.5 2-3.3 0.6-1.7 1-4.8 1-6.7 0-1.9 0.8-4.3 1.8-5.3 0.9-1 2.8-1.8 4.2-1.7 1.4 0 3.1 0.9 3.7 2 0.7 1.1 1.6 4.1 1.9 6.7 0.3 2.7 0.1 6.6-0.5 8.8-0.5 2.2-2.7 5.9-8.6 12.6l2 3.4c1.7 2.8 2.5 3.3 4.7 2.9 2.4-0.3 3.1 0.1 4.4 2.8 1.1 2.3 1.5 5.4 1.3 9.8-0.1 3.6 0.1 8.3 0.4 10.5 0.4 2.2 0.9 6.2 1.2 9 0.3 2.7 0.7 5.1 0.8 5.2 0.1 0.2 2.7-1.5 5.7-3.7 3-2.2 6.5-4 7.7-4 1.7 0 2.5 0.8 2.9 2.7 0.5 2.4-0.1 3.5-3.8 7.1-2.3 2.4-6.5 5.8-9.1 7.5-2.6 1.8-5 3.9-5.2 4.7-0.2 0.8-0.6 4-1 7-0.3 3-1.3 8-2.2 11-0.8 3-1.7 8.4-1.9 12-0.1 3.6-0.5 7.6-0.7 9-0.2 1.4-0.9 4.1-1.6 6-0.6 1.9-1.6 6-2.1 9-0.6 3-1.1 6.2-1.1 7-0.1 0.8-0.8 4-1.6 7-0.9 3-2.2 6.9-3 8.5-0.9 1.6-1.7 4.8-2 7-0.3 3.3 0.1 4.5 2.3 7 2.7 2.9 2.7 3.3 2.2 12-0.3 6.2-1.4 11.5-3.3 17-1.6 4.4-3.2 8.1-3.7 8.2-0.4 0.2-0.8 0.9-0.8 1.5 0 0.7-1.1 2.7-2.4 4.3-1.3 1.6-2.7 4.1-3.1 5.5-0.4 1.4-0.9 3.6-1.1 5-0.2 1.4-0.5 4.1-0.8 6-0.2 1.9-0.8 5.7-1.2 8.5-0.5 2.7-0.7 12.8-0.4 39.5l-3.8 4.1c-2 2.2-4.8 4.3-6.2 4.7-1.4 0.3-2.9 0.5-3.5 0.4-0.6-0.1-2 2.7-3.1 6.1-1.2 3.4-3.3 9.2-4.8 12.9-1.4 3.8-2.4 6.8-2.1 6.8 0.3 0 0 1.5-0.5 3.2-0.6 1.8-2.6 10.9-4.5 20.3-1.9 9.4-3.8 22.2-4.2 28.5-0.4 6.3-0.8 18.1-0.8 26.2 0 8-0.1 14.6-0.3 14.5-0.1-0.1-0.9-4.5-1.7-9.7-0.8-5.2-1.5-15.9-1.5-23.8 0-7.9 0.7-18.5 1.5-24 0.9-5.3 2.7-13.8 4-18.7 1.3-4.9 2.7-9.9 3.2-11 0.5-1.5 0.4-1.8-0.5-1.3-0.6 0.5 0.3-3.6 2.2-9 1.9-5.3 4.2-13.1 5.1-17.2 1-4.1 2.8-9.8 4-12.5 1.3-2.8 2.5-6.7 2.9-8.8 0.3-2 1-3.9 1.6-4.2 0.6-0.3 1.2-0.4 1.4-0.3 0.2 0.2-0.2 4.4-0.9 9.3-0.7 4.9-1.1 9.2-0.9 9.5 0.2 0.3 1.6-0.6 3-2 1.4-1.4 3.2-3.6 3.9-5 0.8-1.5 1.5-8.2 1.9-17 0.3-8 0.8-16.1 1-18 0.2-1.9 0.7-6.6 1.1-10.5 0.4-3.9 0.9-8.1 1.2-9.5 0.2-1.4 2.8-7.4 5.8-13.5 3-6.1 5.8-12.8 6.4-15 0.5-2.2 1-6.5 1.1-9.5 0.1-3 0.1-6.5 0.1-7.8-0.1-1.5-1.1-2.6-3.2-3.5-3-1.1-3.1-1.4-2.6-5.7 0.3-2.5 1-6.6 1.6-9.3 0.6-2.6 1.7-5.9 2.5-7.5 0.8-1.5 1.7-5.4 2.1-8.7 0.4-3.3 1.3-8.9 2.1-12.5 0.8-3.6 1.7-7.9 2-9.5 0.4-1.6 0.7-6.6 0.9-11 0.1-4.4 0.7-9.2 1.4-10.8 0.6-1.5 1.6-7.1 2.3-12.5 0.6-5.3 1.1-13.3 1-17.7-0.1-4.4-0.7-10.9-1.3-14.5-0.8-4.4-2.4-8.5-5-12.8-2.2-3.4-3.9-6.4-3.9-6.7 0-0.3-1.3-2.4-2.8-4.8-1.6-2.3-3.4-5.5-4-7.2-0.6-1.7-2.1-3.9-3.3-5-1.2-1.1-2.7-3.2-3.5-4.8-0.8-1.5-1.4-3.6-1.4-4.7 0-1.1-0.9-2.8-2.1-3.8-1.5-1.2-2.4-3.6-3-8-0.5-3.4-1.5-7.4-2.3-9-0.7-1.5-5.4-7.2-10.2-12.7-4.9-5.4-10.9-11.8-13.4-14.1-2.5-2.3-6.1-5.5-8.1-7.1-2-1.5-5.6-5.2-8-8-2.7-3.3-5.4-5.4-7.2-5.8-1.5-0.3-10.7-4.7-20.5-9.9-9.7-5.2-20.5-10.4-24-11.5-3.4-1.2-11.9-2.8-19-3.6-7-0.8-17-1.5-22.2-1.5-5.2 0-13.3 0.6-18 1.4-4.7 0.8-13.8 3-20.3 5-6.4 2-15.6 5.2-20.5 7.2-5 2.1-12.9 6.6-18.7 10.7-5.5 3.9-15.2 11.5-21.5 16.8-6.3 5.4-14.5 12.8-18.2 16.6-3.7 3.7-6.7 7.4-6.8 8 0 0.7-2.1 3-4.6 5-2.5 2.1-6.2 6-8.3 8.8-2 2.7-4.6 6.6-5.7 8.5-1.1 1.9-2.6 5.1-3.2 7-0.7 1.9-1.4 5.3-1.7 7.5-0.3 2.2-0.8 5.8-1 8-0.3 2.2-0.8 5.8-1.2 8-0.4 2.2-0.7 4.2-0.8 4.5-0.1 0.3-0.5 3.4-0.9 7-0.4 3.6-1 7.8-1.2 9.5-0.2 1.6-0.6 5.9-1 9.5-0.3 3.6-0.8 6.8-1 7.2-0.2 0.5-0.9 5.9-1.4 12-0.6 6.2-1.3 15.4-1.6 20.3-0.3 4.9-0.8 9.3-1.2 9.7-0.4 0.5-2.9 1.4-5.6 2-3.9 1-5.3 2-6.8 4.5-1 1.8-2.1 4.8-2.4 6.5-0.3 1.8-0.6 4.9-0.5 6.8 0.1 1.9 0.3 4.9 0.6 6.5 0.2 1.6 0.7 14.7 1.1 29 0.5 20.7 0.3 26.6-0.8 29-0.7 1.6-2.6 5.2-4.2 8-2.3 3.9-3 6.4-3.2 11.5-0.1 4 0.4 8.4 1.4 11.4 1 2.7 2.3 5.1 2.9 5.3 0.7 0.1 2.1 0.6 3 0.9 1.5 0.5 1.5 0.7 0.3 1.1-0.8 0.3-2.6 0-4-0.7-1.4-0.6-3.3-2.2-4.3-3.5-0.9-1.4-2.1-5.6-2.7-9.5-0.6-3.9-0.7-9.1-0.4-11.8 0.4-2.6 2-7.2 3.7-10.2 2.2-4.1 3.3-7.9 4.2-15 0.6-5.2 1-14.4 0.8-20.5-0.2-6.1-1-15.5-1.7-21-0.7-5.5-1.1-12.3-0.9-15 0.2-2.8 1.2-6.8 2.2-9 1-2.2 2.5-4.8 3.2-5.8 0.8-1 3.2-2.1 5.4-2.4 2.2-0.3 4.1-0.6 4.2-0.7 0.1 0 0.4-4.8 0.8-10.6 0.3-5.8 1-16.6 1.6-24 0.5-7.4 1.2-16.2 1.5-19.5 0.3-3.3 1.2-11.4 2-18 0.8-6.6 1.7-13.8 2-16 0.3-2.2 0.7-5.4 1-7 0.2-1.7 0.7-4.4 1-6 0.4-1.7 2-5.7 3.6-9 1.6-3.3 3.6-6.7 4.3-7.5 0.8-0.8 1.5-1.8 1.5-2.3 0-0.4-1.2-2.4-2.8-4.4-2.4-3.3-2.7-4.5-2.6-11.2 0-4.2 0.6-8.6 1.2-9.9 0.9-1.6 2-2.1 3.8-2 1.5 0.2 3 1 3.4 1.8 0.5 0.8 1.6 3.5 2.6 5.9 1.1 2.4 2.2 4.5 2.6 4.7 0.5 0.2 0.4-0.7-0.2-2.1-0.6-1.4-1-5.4-1-9 0-5.2 0.4-6.9 2-8.5 1.1-1.1 2.6-2 3.2-2 0.7 0 2.1 0.5 3.1 1.2 1.3 0.9 2.1 3 3 11.3l5.1-5.4c2.8-2.9 10.4-10 16.8-15.7 6.5-5.7 13-11.2 14.5-12.1 1.6-1 3.5-2.4 4.3-3.2 0.8-0.8 4-3.1 7-5.1 3-2 8.2-4.9 11.5-6.4 3.3-1.6 10.1-4.3 15-6.2 4.9-1.8 12.8-4.4 17.5-5.7 4.7-1.4 11.9-2.9 16-3.6 4.1-0.6 8.9-1.3 10.5-1.5 1.6-0.1 5.5-0.4 8.5-0.4zm229.3 570.9c0.4-0.1 0.7 0.5 0.7 1.2 0 0.6-1.8 10.2-4 21.2-2.2 11-4 22.3-4 25 0 2.8 0.4 5.6 0.8 6.4 0.4 0.8 1.6 1.1 3.2 0.7 1.4-0.3 5.2-3 8.5-5.9 3.3-3 8-8.2 10.5-11.6 2.5-3.3 4.8-6.1 5.2-6.1 0.5 0 2.2-1 3.9-2.2 1.7-1.3 5-2.5 7.2-2.8 3.2-0.4 4.3-1 4.5-2.5 0.2-1.1 0.8-2.5 1.3-3 0.6-0.7 2.3-0.4 5.1 0.7 2.4 0.9 5.4 3 6.8 4.6 1.4 1.5 4 3.6 5.7 4.5 1.9 1 5.6 1.7 8.5 1.7 4 0 6.1-0.5 8.4-2.2 1.6-1.3 5.2-3.1 8-4.1 2.7-1.1 6.3-2.5 7.9-3.2 1.6-0.7 6.1-1.8 10-2.5 3.9-0.7 10.1-1.1 14-0.8 5.4 0.3 8.2 1.1 12 3.3 2.7 1.6 6.5 4.4 8.2 6.2 1.8 1.8 4.3 5.2 5.4 7.6 1.2 2.3 2.2 6.6 2.4 9.7 0.1 3-0.4 7.9-1.1 10.8-0.8 2.8-2.5 6.9-3.8 9-1.3 2-4.1 5.5-6.3 7.7-2.1 2.2-4.8 4.8-6.1 5.8-1.2 0.9-4.6 3-7.5 4.6-2.8 1.6-8.6 4.2-12.7 5.9-4.1 1.7-10.6 4-14.5 5.1-3.9 1.1-10.6 2.7-15 3.5-4.4 0.8-13.4 2.2-20 3.1-6.6 0.8-15.4 2-19.5 2.5-4.1 0.6-14.5 1.7-23 2.5-8.5 0.8-23.8 1.9-34 2.5-10.2 0.6-30.9 1-46 0.9-15.1-0.2-35.8-0.8-46-1.5-10.2-0.7-22.6-1.7-27.5-2.3-5-0.6-11.9-1.3-15.5-1.7-3.6-0.3-10.8-1.2-16-2-5.2-0.8-12.4-1.9-16-2.5-3.6-0.6-7.9-1.3-9.5-1.5-1.6-0.3-3.9-0.6-5-0.9-1.1-0.2-4.7-0.9-8-1.5-3.3-0.6-8.5-1.8-11.5-2.5-3-0.8-7.3-1.7-9.5-2.1-2.2-0.3-4.3-0.8-4.8-1-0.4-0.2-2.6-0.6-5-0.9-2.3-0.3-4.9-0.8-5.7-1-0.8-0.3-3.1-0.7-5-1-1.9-0.3-7.8-0.9-13-1.4-5.2-0.5-14.9-0.7-21.5-0.5-6.6 0.2-15.6 0.9-20 1.5-4.4 0.6-10.3 1.7-13 2.6-2.8 0.8-7.4 2.7-10.4 4.1-3 1.5-6.4 3.7-7.7 5-1.3 1.2-2.4 3.3-2.4 4.7 0 1.5 0.9 3.1 2.2 4 1.3 0.8 3.9 1.9 5.8 2.5 1.9 0.6 6.9 1.7 11 2.6 4.1 0.9 9.7 1.8 12.5 2 2.7 0.3 9.7 0.6 15.5 0.6 5.8 0 14.3-0.2 19-0.6 4.7-0.4 11.2-1.1 14.5-1.6 3.3-0.5 8-1.2 10.5-1.4 2.5-0.3 7.2-1 10.5-1.6 3.3-0.5 7.3-1 8.9-1 1.6 0 2.7 0.2 2.5 0.4-0.2 0.2-2.4 0.7-4.9 1.1-2.5 0.3-5.9 0.8-7.5 1.1-1.6 0.3-5.9 1.1-9.5 1.9-3.6 0.7-9 1.6-12 2-3 0.3-7.8 1-10.5 1.6-2.8 0.5-10.9 1.1-18 1.3-7.7 0.3-16.9-0.1-22.5-0.9-5.2-0.7-12.9-2.1-17-2.9-4.1-0.9-8.9-2.5-10.5-3.5-1.7-1-3.6-3.4-4.4-5.2-1.2-3-1.2-3.8 0.3-6.6 0.9-1.8 3.7-4.8 6.2-6.5 2.5-1.8 7.8-4.5 11.7-6 4-1.6 10.8-3.5 15.2-4.4 5-1 14.4-1.8 25-1.9 9.4-0.2 20.6 0 25 0.5 4.4 0.4 10.5 1.1 13.5 1.5 3 0.3 5.7 0.8 6 1 0.3 0.2 3 0.7 6 1 3 0.4 5.7 0.8 6 1 0.3 0.2 9.7 1.9 21 3.9 11.3 1.9 22.3 3.7 24.5 4 2.2 0.3 6.7 0.8 10 1.1 3.3 0.4 7.1 0.8 8.5 1 1.4 0.2 4.7 0.6 7.5 0.9 2.7 0.3 7.5 0.8 10.5 1.1 3 0.2 9.1 0.7 13.5 1.1 4.4 0.3 15.6 0.9 25 1.3 9.4 0.4 28.5 0.6 42.5 0.5 14-0.1 31.6-0.5 39-0.8 7.4-0.4 17.3-0.9 22-1.2 4.7-0.3 18.2-1.4 30-2.5 11.8-1 28-2.8 36-3.9 8-1.1 17.9-2.8 22-3.6 4.1-0.9 10.9-2.7 15-4.1 4.1-1.5 10.4-4.1 14-5.9 3.6-1.7 8.9-5.1 11.8-7.5 2.9-2.4 6.7-6.6 8.5-9.4 2.4-3.9 3.2-6.4 3.5-11.5 0.4-5.3 0-7.4-1.9-11.4-1.3-2.7-4.2-6.6-6.5-8.5-2.2-2-6-4.1-8.5-4.8-2.4-0.7-7.1-1-10.4-0.7-3.3 0.3-8.5 1.2-11.5 2-3 0.8-7.8 2.3-10.5 3.3-2.8 1-6.8 3.1-9 4.6-3.8 2.6-4.4 2.7-20.5 1.5v3.3c0 1.7-1.1 5.5-2.4 8.2-1.2 2.8-4.2 6.7-6.4 8.8-2.4 2-6.1 4.2-8.5 4.8-2.3 0.6-6 0.9-8.2 0.5-2.2-0.3-5.1-1.3-6.4-2.3-1.3-1-3.2-2.9-4.3-4.3-1-1.4-2.1-4.3-3-10.5l-5.7 5.9c-3.1 3.2-7.6 7.2-10.1 8.8-2.5 1.5-5.7 2.8-7.3 2.8q-2.7 0-4.7-2.7c-1.7-2.3-2.1-4.3-2-17.8l-3 4.8c-1.6 2.6-4.5 6.4-6.4 8.5-1.8 2-5.1 4.5-7.2 5.6-2.5 1.1-4.9 1.6-6.7 1.2-1.5-0.3-3.5-1.8-4.5-3.3-1.1-1.9-1.7-4.7-1.7-15.3l-6.5 6.4c-3.6 3.5-8 7.1-9.8 8-1.7 0.9-4.8 1.6-6.7 1.6-2.5 0-3.9-0.6-5-2.2-0.7-1.3-1.8-5.2-3.1-15.3l-1.9 3.5c-1 1.9-4.1 5.9-6.9 8.9-2.8 2.9-6.3 5.9-7.9 6.7-1.5 0.8-3.7 1.4-5 1.4-1.2 0-3.3-1.1-4.7-2.6-2.3-2.3-2.5-3.4-2.5-10.7 0-6.4 0.5-9.1 2.2-12.2 1.1-2.2 3.3-5.5 4.9-7.4 1.6-1.9 4.7-4.3 6.9-5.2 2.2-1 5.5-1.9 7.2-1.9 1.8 0 5.1 0.7 7.3 1.5 3.6 1.3 4.2 1.3 6.2 0 1.3-0.8 3.3-1.5 4.5-1.5 2.3 0 2.3 0 0.7 4.3-0.8 2.3-2 7.6-2.6 11.7-0.7 5.4-0.7 8.6 0.1 11.3q1.1 3.7 2.8 3.7c1 0 3.3-0.9 5-2 1.8-1.1 5-3.7 7-5.7 2-2.1 5.5-6.2 7.7-9.1 2.3-2.9 4.5-5.3 4.9-5.2 0.5 0 2.3-1.4 4-3.2 1.8-1.7 4.7-3.7 6.4-4.5 1.8-0.7 4.5-1.3 6-1.3 1.6 0 4.8 0.6 7.3 1.5 2.5 0.8 4.6 1.4 4.6 1.2 0.1-0.1 0.9-3.8 1.8-8.2 0.9-4.4 1.6-8.5 1.6-9 0-0.5-1.7-0.9-3.8-0.7-2.6 0.2-4.2-0.2-5.5-1.5-1-1-1.8-2.4-1.7-3 0-1 1.4-1.1 5-0.7 2.8 0.3 6.7 0.1 8.8-0.4 2-0.6 4-1 4.4-1.1zm-92.4 31.3c-1 1.1-2.5 4.4-3.3 7.1-0.8 2.8-1.5 6.9-1.5 9.3 0 2.9 0.6 4.8 2 6.2 1.9 1.9 2.1 1.9 4.7 0.3 1.6-0.9 3.6-2.6 4.6-3.7 1-1.2 3.7-4.8 6.1-8.1 2.4-3.3 5.1-7.2 6-8.7 1.6-2.8 1.6-2.8-2.2-4.7-2-1-4.9-2.1-6.3-2.4-1.5-0.4-3.7 0-5.5 0.9-1.6 0.9-3.7 2.6-4.6 3.8zm60.9-0.2c-1.4 1.8-3 5.1-3.7 7.3-0.7 2.2-1.3 6.4-1.4 9.3-0.1 4.3 0.3 5.7 1.9 6.8 1.1 0.8 2.3 1.4 2.7 1.4 0.5 0 2.3-1.3 4-2.9 1.8-1.5 6.1-6.9 9.5-12 5.3-7.6 6.1-9.4 5-10.6-0.6-0.9-3.2-2.2-5.7-3.1-2.5-0.8-4.7-1.4-5-1.3-0.3 0-1.5 0.4-2.7 0.9-1.2 0.5-3.3 2.4-4.6 4.2zm56.2 8.3c-1 2.2-1.9 5.2-1.9 6.8 0 1.5 0.7 4.1 1.5 5.7 0.8 1.6 2.5 3.7 3.7 4.5 1.3 0.8 3.5 1.5 5 1.5 1.6 0 4-0.7 5.5-1.6 1.6-0.8 3.8-2.9 5-4.7 1.3-1.8 2.7-4.8 3.3-6.7 0.5-1.9 1-5.1 1-7 0-1.9-0.4-4-0.8-4.6-0.4-0.6-1.7-1.6-3-2.3-1.2-0.6-4.2-1.1-6.6-1.1-3.4 0-5.2 0.7-7.7 2.8-1.8 1.5-4.1 4.5-5 6.7zm-342.7-488c3.2 0.3 9.1 1.8 13 3.5 4 1.6 10.4 5.1 14.3 7.6 3.8 2.6 9 5.8 11.5 7.2 2.5 1.4 9 4.1 14.5 5.9 5.5 1.9 16.5 4.9 24.5 6.7 8 1.9 18.5 4.1 23.5 5.1 4.9 0.9 14.4 2.7 21 4 6.6 1.3 16.9 3.1 23 3.9 6 0.9 13.7 1.7 17 1.9 3.3 0.2 10 0 15-0.4 4.9-0.5 10.1-1.1 11.5-1.4 1.4-0.4 4.1-0.9 6-1.3 1.9-0.4 6.6-0.7 10.5-0.6 3.8 0 7.7 0.2 8.5 0.5 0.9 0.2 2.7 1.1 4 2 1.4 0.8 3.5 3.5 4.7 6 1.3 2.4 2.3 5.3 2.3 6.4 0 1.1-1-0.1-2.4-3-1.3-2.7-3.2-5.7-4.2-6.6-1-0.9-3-2-4.4-2.4-1.4-0.4-4.5-0.9-7-1-2.5-0.2-6.3 0.3-8.5 1-2.2 0.7-6.7 1.9-10 2.6-3.6 0.8-13.4 1.3-24.5 1.4-10.4 0-22.5-0.6-27.5-1.3-5-0.7-15.5-2.5-23.5-3.8-8-1.4-20.1-3.9-27-5.5-6.9-1.7-17.9-4.9-24.5-7.1-6.6-2.2-14.9-5.4-18.5-7.1-3.6-1.6-10.8-5.8-16-9.2-5.2-3.5-12-7.4-15-8.8-3-1.3-7.6-2.8-10.1-3.2-4-0.6-5.3-0.3-9 1.8-2.4 1.3-7.8 5.8-11.9 9.8-6.3 6.2-8.3 9.1-12.6 17.9-2.9 5.8-6.1 13.5-7.3 17.3-1.1 3.7-2.3 8.2-2.5 10-0.3 1.7-0.5 3.8-0.5 4.5-0.1 0.6-0.6 1.2-1.1 1.2-0.6 0-0.8-2.2-0.4-5.7 0.3-3.2 1.4-9.2 2.5-13.3 1.2-4.1 4.3-12.2 7.1-18 4.3-9.2 5.9-11.4 12.6-17.8 4.3-4 9.5-8.1 11.7-9.2 3.1-1.6 5.3-1.9 9.7-1.5zm-61.7 104.5c0.3 0 1.2 1.4 2 3 0.8 1.6 1.5 3.7 1.5 4.5 0 0.8 0.7 3.2 1.6 5.3 0.9 2 2 4.5 2.5 5.5 0.5 0.9 0.9 2.4 0.9 3.2 0 0.8 0.4 1.5 1 1.5 0.5 0 1 0.6 1 1.3 0 0.6 1.7 4.3 3.8 8.2 2 3.9 5.6 10 8 13.8 2.3 3.7 4.5 6.7 4.9 6.7 0.5-0.1 2.8-1.9 5.3-4.2 4.5-4.1 4.5-4.1 10.5-3.4 3.3 0.4 7.9 1 10.1 1.4 2.3 0.4 4 0.5 3.9 0.2-0.1-0.3-3.1-2.2-6.6-4.4-6.3-3.8-6.5-3.8-14.2-3.2-7.6 0.6-7.7 0.6-7.1-1.6 0.3-1.3 1.1-3.4 1.8-4.8 0.7-1.5 2.6-3 5.1-3.9 2.2-0.7 8.9-1.6 26-2.5l5.5 5.8c3 3.1 7.2 6.3 9.2 7.1 2.1 0.8 8.4 1.7 14 2 5.7 0.2 12.3 1 14.8 1.8 2.5 0.7 6.9 2.9 15 8.7l-0.8-3c-0.4-1.9-0.3-3 0.3-3 0.5 0 1.6 0.8 2.3 1.8 1.1 1.5 1.2 1.4 0.7-1-0.3-1.6-0.2-2.8 0.2-2.8 0.5 0 1.8 1 3 2.2 1.2 1.3 2.9 3.7 3.7 5.3 1.6 2.9 1.6 2.9 2.1 0.8 0.3-1.3 0.8-2.3 1.2-2.3 0.5-0.1 1.4 1.2 2.1 2.7 0.7 1.5 1.2 4.4 0.7 9.8l-6.7 0.5c-3.6 0.3-7 0.8-7.5 1.3-0.4 0.4-0.6 0.8-0.3 1 0.3 0.2 4.8 2.1 10 4.4 5.2 2.2 11.5 4.5 14 5.1 2.5 0.6 7.4 1.1 11 1.2 3.6 0.1 9 0.1 12 0.1 5-0.1 5.6-0.3 6.7-2.8 0.7-1.6 2.8-4.7 4.8-7 2.6-3.2 4.5-4.5 7.2-4.9 2.4-0.4 8 0.2 14.8 1.5 6 1.2 13.1 2.1 15.7 2.1 2.7 0 7.8-0.7 11.5-1.6 3.8-0.9 11.3-1.7 16.8-1.8 8.7-0.1 10.6 0.2 14.5 2.3 2.5 1.3 6.2 4 8.3 6 2 2 3.7 3.9 3.7 4.4 0 0.4-1.1 0.7-2.5 0.7-1.4 0-5 1.4-8 3-3.1 1.7-7.2 3.1-9.3 3.1-2.9 0.1-2 0.5 3.8 1.6 5.9 1.1 8.2 2.1 13.5 7.4l4.8-5.8c2.6-3.2 6.5-9.4 8.6-13.8 2.1-4.4 4.2-8.9 5.5-12l0.3 2c0.2 1.1-0.3 4.7-1.1 8-0.8 3.6-1.5 5-1.6 3.5-0.2-2.4-0.2-2.4-1.2 0.5-0.6 1.6-3.2 5.9-5.8 9.5-2.5 3.6-5.9 7.9-10.2 12.5l-2.4-3c-1.3-1.6-2.4-3.2-2.4-3.5 0-0.3-2.3-1.1-5.2-1.8-2.9-0.7-8.7-1.9-12.8-2.7-4.1-0.8-10.2-1.7-19.5-2.8l6.4 5.4c3.5 3 6.8 6.2 7.2 7.2 0.5 0.9 0.9 2.6 0.9 3.7 0 1.3-1 2.4-2.8 3-1.5 0.6-3.6 1.5-4.7 2-1.1 0.6-4.3 1.4-7 1.9-2.8 0.6-6.6 0.8-8.5 0.6-1.9-0.2-5.3-0.7-7.5-1-2.2-0.3-6.7-2.3-10-4.5-3.3-2.2-7.5-5-9.3-6.2-1.8-1.3-3-2.4-2.7-2.5 0.3-0.2 3.1 1.2 6.2 3 5 2.8 5.6 2.9 4.9 1.2-0.5-1.1-1.1-3.1-1.3-4.5-0.4-2.4-0.4-2.4 1.5 0.5 1.1 1.6 3.7 3.8 5.8 4.9 2.5 1.2 5 1.6 6.9 1.2 1.6-0.3 4-1.5 5.2-2.6 1.5-1.3 2.3-3.2 2.3-5.2 0.1-2.5-0.5-3.6-2.5-4.5-1.4-0.7-5.3-1.6-8.8-1.9-3.5-0.3-8.4 0-11.2 0.6-2.8 0.7-6 1.8-7.3 2.6-1.6 1.1-2.1 1.1-1.9 0.2 0.2-0.7 2.2-2.2 4.5-3.3 2.3-1.1 4.2-2.2 4.2-2.5 0-0.3-3.9-0.4-8.8-0.3-4.8 0.1-15 0.2-22.7 0.3-7.7 0-16.3-0.3-19-0.9-2.8-0.5-9.1-2.5-14-4.4-5-1.9-11-4.3-13.5-5.4-2.5-1.2-5.6-2.4-7-2.8-2.3-0.7-2.2-0.5 1.2 3.4 2.1 2.2 3.8 4.4 3.8 4.9 0.1 0.4-0.5 1.2-1.2 1.9-0.7 0.6-3.8 1.6-6.8 2.1-3 0.6-11 1-17.8 1.1-10.2 0.1-12.9-0.2-16.7-1.9-2.5-1.1-6.8-4.2-9.5-7-2.8-2.7-4.8-5-4.5-5 0.3 0 2.3 1.1 4.5 2.5 2.2 1.4 4.2 2.9 4.5 3.5 0.3 0.6 2 1.7 3.7 2.5 1.8 0.9 3.7 1.5 4.3 1.6 0.5 0 0.2-0.8-0.7-1.8-0.9-1-2-3.2-2.4-4.8-0.4-1.8-0.2-3.3 0.5-3.7 0.7-0.5 1.1-0.1 1.1 1.2 0 1.1 1.6 3.6 3.5 5.5 1.9 1.9 4.4 3.5 5.5 3.5 1.1 0 3.6-0.8 5.6-1.7 2.4-1.2 3.8-2.8 4.3-4.8 0.4-1.6 0.5-3.9 0.1-5-0.5-1.2-2.4-2.5-5.1-3.3-3-0.9-8.3-1.2-16.9-0.9-10.6 0.4-12 0.2-9.5-0.8 1.6-0.7 5.7-1.6 9-1.9 3.3-0.4 6.2-0.8 6.5-1.1 0.3-0.2-2.9-1.1-7-2-4.1-0.9-9.3-2-11.5-2.5-2.2-0.5-6.5-1.4-9.5-1.9-3-0.6-6.9-1.1-8.5-1.2-1.7 0-3.8-0.1-4.8 0-0.9 0.1-3.6 1.9-6 4.1-2.3 2.2-4.4 4-4.7 4-0.3 0-1-0.4-1.5-0.8-0.6-0.4-2.6-3.2-4.6-6.2-2-3-5.2-8.2-7.1-11.5-1.8-3.3-4.2-7.8-5.3-10-1-2.2-3.6-8.5-5.6-14-2.5-6.6-3.8-9.1-3.8-7.2-0.1 1.5 0.6 3.9 1.3 5.5 0.8 1.5 2.8 6.5 4.4 11.2 1.7 4.7 3.3 9.4 3.7 10.5q0.8 2-0.2 1c-0.6-0.6-2.9-5.7-5.2-11.5-2.3-5.8-4.8-11.9-5.6-13.5-0.7-1.6-1.1-3.4-0.9-4 0.2-0.6 0.8-2.2 1.4-3.7 0.5-1.6 1.2-2.8 1.5-2.8zm100.1 69.6c0 1.1-0.7 2.9-1.4 3.9-1.3 1.7-1.1 1.8 3.5 1.1 2.6-0.3 5.2-1 5.6-1.4 0.5-0.4-0.9-2.2-3.1-4-2.1-1.9-4-3-4.2-2.5-0.1 0.4-0.3 1.7-0.4 2.9zm122.5 25.7c-1.2 1.5-3.6 3.3-5.4 4.1l-3.2 1.4c5.4 0.2 8.6-0.3 10.5-0.9 1.9-0.6 5-1.7 6.7-2.5 1.8-0.8 3.3-1.7 3.3-2.1 0-0.5-1.7-2.4-3.7-4.4-2.1-1.9-4.6-4.2-5.6-5-1.6-1.3-1.7-1.1-1.1 2.6 0.5 3.1 0.1 4.6-1.5 6.8zm-159.7-41.2c1.1-0.1 1.7 0.1 1.5 0.4-0.2 0.3-2.5 1.2-5.2 2-2.6 0.8-4.8 1.3-4.9 1-0.1-0.3 1.3-1.1 3.2-1.9 1.9-0.8 4.4-1.5 5.4-1.5zm23.5 7.9c0.9 0 2.4 0.6 3.3 1.3 1.3 0.9 1.6 2 1 4.1-0.4 1.6-1.5 3.3-2.5 3.7-0.9 0.5-2.3 0.7-3 0.4-0.6-0.2-1.9-1.6-2.7-3-1.4-2.2-1.3-2.6 0.4-4.5 1-1.1 2.6-2 3.5-2zm-60 15.5c0.3 0.4 0.5 2.1 0.3 3.8-0.1 2.3 0.4 3.7 2 5 1.3 1 5.4 3.8 9.3 6.3 3.8 2.5 9.5 5.7 12.5 7.1 3 1.4 8 3.4 11 4.4 3 1 10.4 2.8 16.5 3.9 6 1.2 13.9 2.5 17.5 2.9 3.6 0.3 9 0.3 12-0.2 3-0.4 7-1.6 8.9-2.5 1.8-0.9 5.6-4.4 8.2-7.7 2.7-3.3 5.7-8.2 6.6-11 1.5-4.1 1.8-4.6 2.1-2.5 0.2 1.4-1 5.4-2.7 9-1.6 3.6-4.5 8.1-6.3 10.1-1.8 1.9-6 4.8-9.3 6.4-4.8 2.2-7.8 2.9-15 3.3-5.7 0.3-12.3-0.2-18-1.1-5-0.9-11.7-2.5-15-3.5-3.3-1.1-9.2-3.5-13-5.4-3.9-1.9-10.4-5.7-14.5-8.3-4.1-2.6-9.2-6.4-11.3-8.4-3.2-3-3.8-4.2-3.6-7.1 0.2-1.9 0.5-3.9 0.8-4.3 0.2-0.5 0.7-0.5 1-0.2zm88.8 3.7c0.2-0.1 0.3 0.1 0.3 0.6 0 0.4-1.9 2.6-4.2 5-2.4 2.4-4.5 4-4.8 3.7-0.3-0.3 1.5-2.5 4-4.9 2.5-2.4 4.6-4.4 4.7-4.4zm95 2.8c2.3 0 3.6 0.6 4.3 2 0.7 1.5 0.6 2.7-0.5 4.5-0.8 1.4-2.4 2.5-3.5 2.5-1.1 0-2.9-0.4-4-1-1.1-0.5-2.1-2-2.2-3.3-0.1-1.3 0.4-2.8 1.2-3.5 0.8-0.7 2.9-1.2 4.7-1.2zm-44.2 10c0.1 0.3 0.6 3.6 0.9 7.5 0.4 3.9 0.8 7.7 1 8.5 0.2 0.8 0.6 2.9 1 4.5 0.4 1.6 2.3 4.7 4.4 6.7 2.7 2.7 5.3 4.1 9.7 5.2 3.3 0.8 10.7 2 16.5 2.6 5.8 0.6 13 1.5 16 2.1 3 0.5 10.8 1.1 17.2 1.4 9.2 0.4 12.7 0.2 16-1.1 2.4-0.8 6.3-3 8.8-4.7 3.1-2.3 5.1-4.7 6.7-8.4 1.3-2.9 2.5-5.3 2.8-5.3 0.3 0 0.2 1.2-0.1 2.8-0.3 1.5-1.5 4.6-2.7 7-1.2 2.3-2.5 4.2-3 4.2-0.4 0-1.9 1.4-3.5 3.1-1.6 1.8-4.7 3.6-7.7 4.5-2.8 0.8-9.7 1.8-15.5 2.1-5.8 0.3-15.9 0-22.5-0.6-6.6-0.7-15.4-1.9-19.5-2.7-4.1-0.9-9.8-2.6-12.5-3.8-2.8-1.3-6.4-3.4-8-4.8-1.7-1.4-3.7-4-4.6-5.9-1-1.9-2-6.8-2.3-10.9-0.4-4.1-0.4-9.1 0-11 0.3-1.9 0.7-3.3 0.9-3zm16.7 3c0.6 1.9 2.3 4.7 3.9 6.3 1.6 1.5 2.9 2.9 2.9 3.2 0 0.3-0.5 0.5-1 0.5-0.6 0-2.4-1.9-4-4.2-1.7-2.4-3-5.4-2.9-6.8 0.1-2.1 0.2-2 1.1 1zm-201.1-1c0.6 0 0.7 6.1 0.2 16.3-0.4 8.9-0.8 20.8-0.8 26.4 0 5.5-0.3 9.9-0.8 9.7-0.4-0.2-0.9-1.8-1.2-3.4-0.3-1.6-0.8-3-1.3-3-0.4 0-0.8 2.1-1 4.7-0.1 2.7-0.7 7.7-1.3 11.3-0.5 3.6-2.4 12.4-4 19.5-1.7 7.1-4.9 17.3-7 22.5-2.2 5.2-4.1 10-4.3 10.5-0.1 0.6-1.1 2.7-2.2 4.8-1 2-2.1 3.7-2.4 3.7-0.3 0 0.8-3.8 2.4-8.3 1.6-4.5 4.4-13.8 6.3-20.7 1.9-6.9 4.5-18.4 5.9-25.5 1.4-7.1 2.8-14.1 3-15.5 0.5-2.5 0.5-2.5-1.3-0.5-1 1.1-3.4 3.3-5.3 4.7-1.9 1.5-4.2 2.8-5 2.8-0.8 0-4 1.4-7 3-3 1.6-7.5 3.9-10 5.2-2.5 1.3-5.1 2.8-5.8 3.3-0.7 0.6-1.8 1.5-2.5 2-0.7 0.6-2.4 1.8-4 2.8-1.5 0.9-3.9 2.7-5.3 4-1.5 1.2-4.6 4.2-7 6.7-2.3 2.5-5.9 6.8-7.9 9.5-1.9 2.8-4.6 7.3-5.9 10-1.3 2.8-3.5 7.9-4.9 11.5-1.4 3.6-3.3 8.6-4.1 11.3-0.9 2.6-1.6 6.3-1.6 8.2 0 1.9 0.7 7 1.6 11.3 0.9 4.2 2.7 10.6 4 14.2 1.3 3.6 4 9.6 5.9 13.5 1.9 3.9 5.8 9.7 8.7 12.9 2.9 3.3 8.2 8.2 11.8 10.9 3.6 2.7 11.4 7.3 17.5 10.3 7.4 3.7 13.9 6.1 20 7.4 4.9 1 12.8 2.4 17.5 3 4.7 0.6 16.8 1.3 27 1.6 11.5 0.3 21.2 1.1 25.5 2.1 3.8 0.9 7.4 1.8 8 2.2 0.5 0.3 1.7 0.7 2.5 0.8 0.8 0.2 6.4 2.7 12.5 5.8 8.5 4.2 11.7 6.4 14 9.5 1.6 2.2 4.1 5.5 5.5 7.2 1.4 1.7 3.5 4.2 4.7 5.5 1.5 1.5 3.5 2.3 5.5 2.3 1.8 0 7.1-0.7 11.8-1.6 4.7-0.8 9.5-1.3 10.7-1 1.3 0.3 3.1 1.7 4 3.1 1 1.4 1.6 2.8 1.3 3-0.3 0.2-2.1 0-4-0.5-1.9-0.6-4.7-0.8-6.3-0.5-1.8 0.3-2.5 1-2.2 2 0.3 0.8 0.1 1.6-0.4 1.8-0.5 0.1-2.5 8.3-4.5 18.2-2.8 14.4-4.3 19.5-7.3 25.5-2.6 5.1-5.1 8.5-8.1 10.7-2.3 1.8-6.1 3.8-8.5 4.4-2.9 0.8-5.2 0.8-7.7 0-1.9-0.5-4.6-2.2-6-3.6-2.3-2.4-2.4-2.8-1-5.2 0.8-1.5 2.1-2.8 2.7-3 0.7-0.2 1.3 0.4 1.3 1.2 0 0.8 1.1 2.6 2.5 4 1.9 1.9 3.6 2.5 6.7 2.5 2.8 0.1 5.3-0.6 7-2 1.7-1.2 3.6-4.2 4.8-7.5 1.1-3 3.8-14.3 6-25 2.2-10.7 4-19.7 4-20 0-0.3-1.7-0.8-3.8-1.1-2-0.4-5.5-2.1-7.7-3.7-2.2-1.7-4.7-3.8-5.5-4.6-0.9-0.9-3.8-4.4-6.5-7.9-3.5-4.4-6.3-6.8-9.5-8.2-2.5-1-8.1-3.2-12.5-4.8-4.4-1.7-11.8-3.7-16.5-4.6-6.3-1.1-13.4-1.5-27.5-1.2-10.5 0.2-22.2-0.1-26-0.5-3.9-0.5-8.6-1-10.5-1.3-1.9-0.3-5.8-1-8.5-1.6-2.8-0.6-7.3-1.8-10-2.6-2.8-0.9-8.6-3.4-13-5.6-4.4-2.3-11.3-6.4-15.4-9.2-4.1-2.8-9.5-7.4-12-10.1-2.5-2.8-6.1-7.7-8-11-1.8-3.3-4.7-9.4-6.3-13.5-1.6-4.1-3.4-9.7-3.9-12.5-0.6-2.7-1.5-6.8-2-9-0.5-2.2-1.2-6.7-1.5-10-0.5-5.2-0.2-7.2 2.7-15 1.8-4.9 5-12.6 7.2-17 2.1-4.4 5-9.5 6.3-11.2 1.3-1.8 2.4-3.5 2.4-3.8 0-0.3 0.8-1.5 1.7-2.7 1-1.3 5-5.6 9-9.5 4-4 6.9-7.3 6.5-7.3-0.4 0-1.2 0.4-1.8 0.9-0.5 0.5-4.7 2.2-9.4 3.9-4.7 1.7-11.9 4-16 5.1-4.1 1.1-9.3 2.2-11.5 2.5-2.2 0.2-11 1.3-19.5 2.4-8.5 1.2-20.7 2.3-27 2.6-6.3 0.3-12.9 0.2-14.5-0.3-2.3-0.7-2.5-1-1-1.1 1.1-0.2 2.9-0.4 4-0.6 1.1-0.1 5.1-0.8 9-1.4 3.8-0.6 8.1-1.3 9.5-1.5 1.4-0.3 7.9-1.6 14.5-3 6.6-1.4 13.6-2.9 15.5-3.4 1.9-0.5 10.7-3 19.5-5.6 8.8-2.6 18-5.3 20.5-6 2.5-0.8 7.9-2.5 12-4 4.1-1.5 12.2-4.7 18-7.2 5.8-2.5 13.2-5.9 16.5-7.5 3.3-1.7 7.4-3.8 9.2-4.7 2.8-1.4 3.3-2.3 4.4-8.6 0.6-3.9 0.9-7.4 0.6-8-0.3-0.5 0.1-4.6 0.9-9 0.8-4.4 1.6-8.7 1.7-9.5 0.2-0.8 0.7-3.6 1.1-6.2 0.4-2.7 1.2-4.8 1.7-4.8zm-14.4 51c-0.4 0-3.1 1.6-6 3.6-4.4 3.1-4.8 3.5-2.2 2.9 1.6-0.4 4.8-2 7-3.5 2.2-1.6 4.6-3.8 5.3-4.9 0.7-1.2 1.1-2.1 0.9-2.1-0.2 0-1.3 0.9-2.3 2-1 1.2-2.2 2.1-2.7 2zm202.1-20.5l2.6 3.5c1.5 1.9 2.6 4 2.6 4.5 0 0.6 1.4 4.1 3.1 8 1.8 3.9 3.6 9 4 11.5 0.4 2.5 0.4 5.9 0.1 7.5-0.3 1.6-2.3 4.7-4.4 6.8-3.3 3.2-4.4 3.7-8.3 3.7-2.5 0-4.3-0.3-4.1-0.7 0.2-0.5 2.2-1.1 4.5-1.5 3-0.6 4.6-1.6 6.1-3.8 1.4-2.1 2-4.6 2-8.2 0-2.9-1-8.2-2.1-11.8-1.2-3.6-2.7-7.9-3.4-9.5-0.7-1.6-1.6-4.6-2-6.5zm-65.5 5.5c0.1 0 0.1 3.5 0 7.8-0.2 4.2 0.3 9.7 1 12 0.7 2.7 2.2 5 3.7 6 1.4 0.8 3.7 1.9 5 2.2 2.4 0.7 2.4 0.8 0.5 1.5-1.2 0.5-3.5 0.3-5.9-0.6-2.1-0.8-4.8-2.7-6-4.2-1.7-2.3-2-4.2-2-10 0.1-4.1 0.8-8.8 1.8-10.9 0.8-2.1 1.7-3.8 1.9-3.8zm18.2 19.7c1.1 0.3 2.5 0.9 3 1.4 0.6 0.6-1 0.9-4.2 0.9-2.9 0-5.4-0.2-5.4-0.5-0.1-0.3 0.9-1 2.2-1.5 1.3-0.5 3.3-0.6 4.4-0.3zm6.5 3.3c0.6 0 1.3 0.5 1.5 1 0.3 0.6 2.2 1.7 4.3 2.5q3.7 1.6 10.9 1.3c3.9-0.2 7.4 0 7.8 0.5 0.3 0.4-1.6 1.4-4.2 2.2-2.6 0.8-6.2 1.5-8 1.5-1.8 0-4.5-0.5-6-1.2-1.5-0.7-3.8-2.3-5-3.5-1.3-1.3-2.3-2.7-2.3-3.3 0-0.5 0.5-1 1-1zm30.8 3.1c0.7-0.1 2.1 0.9 3.3 2.2 1.1 1.2 2 2.5 2 3-0.1 0.4-0.5 0.7-1.1 0.7-0.5 0-2.9-1-5.2-2.1-3.8-1.9-4-2.3-2.3-3 1.1-0.4 2.6-0.8 3.3-0.8zm-48.9 9.4c1.5 0.4 2.9 0.7 3.1 0.8 0.3 0 3.7-0.3 7.5-0.7 6.1-0.6 7.3-0.5 8.8 1.1 1 1 1.8 3 1.8 4.6-0.1 2.2 0.4 2.8 2.9 3.2 2.1 0.3 3.9-0.1 5.8-1.5 1.5-1.2 4.2-2.3 5.9-2.7 1.7-0.3 4.4 0 6 0.7 1.6 0.7 5.7 3.8 9.2 6.9 3.4 3.1 7.3 7.1 8.5 9 1.2 1.9 3.5 4.3 5.1 5.4 2.3 1.5 4.5 2 8.8 1.9 3.1-0.1 6.6 0.3 7.7 0.8 1.1 0.6 3.2 3.1 4.5 5.8 1.6 2.9 3.6 5.1 5.3 5.7 1.6 0.7 3.7 2.8 5 5.3 1.8 3.5 2.1 5.1 1.6 9.5-0.3 2.8-1.6 6.6-2.8 8.2-1.1 1.6-3.1 5.3-4.4 8-1.3 2.8-2.8 5.9-3.4 7-0.6 1.1-3.7 7.2-6.9 13.5-4.7 9.3-7.1 12.8-12.6 18.2-3.7 3.7-8.3 8.1-13.8 12.8l8-3.6c4.4-1.9 12.3-6.1 17.5-9.1 5.3-3.1 12.2-7.5 15.5-9.9 3.3-2.3 7-5.3 8.1-6.6 1.2-1.2 3.9-3.9 6-5.9 2.2-2 5.7-5.6 7.9-8 2.2-2.4 5.7-6.3 7.8-8.7 2-2.3 3.7-3.9 3.7-3.4 0 0.4-3.2 5-7.2 10.3-4 5.3-10.6 12.9-14.8 17-4.1 4.1-9.1 8.8-11 10.4-2 1.6-5.3 4.2-7.3 5.8-2 1.5-4.1 2.7-4.7 2.7-0.5 0-1 0.5-1 1 0 0.5-0.5 1-1.2 1-0.7 0-1.9 0.7-2.8 1.4-0.8 0.8-8 4.8-16 8.9-7.9 4.1-15.6 7.8-17 8.2-1.3 0.4-5.4 2.2-9 4-3.5 1.7-8.3 3.7-10.5 4.5-2.2 0.7-4.6 1.8-5.3 2.4-0.7 0.6-1.2 0.8-1.2 0.4 0-0.5-1.2-0.3-2.7 0.3-1.5 0.5-5.9 1.2-9.8 1.4-4.8 0.2-9.3-0.3-14.5-1.7-4.1-1-10.4-3.4-14-5.1-3.5-1.7-9.4-5.3-13-8-3.5-2.8-9.8-8.2-13.8-12.1-4-3.9-11.3-11.1-16.2-16.1-4.8-5-9.9-10.4-11.1-12-1.3-1.6-2.6-3.2-2.9-3.5-0.3-0.3-3.1-3.6-6.1-7.5-3-3.9-7.8-10.4-10.6-14.5-2.8-4.1-7.9-13.1-11.4-20-3.4-6.9-7.7-16.5-9.6-21.5-1.9-4.9-3.6-9.7-3.8-10.5-0.2-0.8-0.4-1.5-0.5-1.5-0.1 0-0.3-1.4-0.5-3-0.3-2.9-0.3-2.9 1.1-1 0.8 1.1 1.5 2.6 1.4 3.3 0 0.6 1.9 5.1 4.2 10 2.3 4.8 4.3 9.4 4.5 10.2 0.2 0.8 0.7 1.7 1.2 2 0.5 0.3 1.1 1.4 1.5 2.5 0.3 1.1 3.1 6.1 6.2 11 3.1 5 5.9 9.2 6.3 9.5 0.3 0.3 1.2 1.4 1.9 2.5 0.7 1.1 1.5 2.8 1.8 3.8 0.2 0.9 0.9 1.7 1.4 1.7 0.6 0 1.3 0.8 1.7 1.8 0.4 0.9 1.6 2.6 2.8 3.7 1.1 1.1 4.1 4.5 6.7 7.5 2.5 3 8.5 9.3 13.4 14 4.8 4.7 9.7 9.4 10.9 10.5 1.2 1.1 3 2.7 4 3.5 1.7 1.4 1.7 1.3-0.1-2.5-1-2.2-2.3-4.6-2.8-5.4-0.6-0.8-2.3-4.9-3.7-9-1.5-4.2-3.4-9.6-4.3-12.1-0.9-2.5-2-5.3-2.6-6.2-0.6-1.1-0.8-11 0-50.8l3-4c1.9-2.5 3.6-3.8 4.5-3.5 0.9 0.3 4.5-1.6 8.1-4.1 5-3.5 7.1-4.4 9-4 1.3 0.3 4.3-0.1 6.7-0.9 3.8-1.4 4.6-1.4 8.2 0.1 3 1.1 5.5 1.4 9.5 0.9 3.1-0.4 6.7-1.4 8-2.2 1.4-0.9 2.9-2.3 3.4-3 0.6-1 1.8-1.3 3.5-0.8zm-22.5 22.2c-3.8 0.2-10 0.6-13.9 0.9-3.8 0.3-8.3 1.3-9.9 2.2-1.6 1-3.7 3.1-4.7 4.7-1.2 2-2.1 7-2.8 15.5-0.6 6.9-1.3 14.3-1.7 16.5-0.4 2.6 0 6.2 1.2 10 0.9 3.3 3.8 12.3 6.3 19.9 2.6 7.7 5.4 15 6.4 16.3 0.9 1.3 2.2 2.3 2.7 2.3 0.6 0 0.8-1.7 0.4-4.2-0.3-2.4-0.1-5.9 0.5-7.8 0.6-1.9 2.7-4.7 4.6-6.2 2-1.6 4.3-2.7 5.3-2.5 1.4 0.2 1.6 1 1.3 3.7-0.3 2.9-0.1 3.4 1.3 2.8 1.1-0.5 1.8-0.3 2.1 0.7 0.4 1 1.8 1.5 4.3 1.5 2.7 0 4.1 0.6 5 2 1.1 1.8 2 1.9 8.7 1.5l7.5-0.5c2.4 5.4 3.5 7 4 7 0.6 0 1.8-1.8 2.8-4 0.9-2.2 2-4.1 2.2-4 0.3 0 1.3 1.3 2.3 3 1.3 2.2 2.1 2.7 3 2 0.9-0.7 1.7-0.3 3 1.5 0.9 1.4 2.2 2.5 2.7 2.5 0.6 0 2.9-1.6 5.3-3.6 3.5-3 4.4-3.3 5-2 0.7 1.4 0.9 1.4 2.2-0.1 0.8-1 1.5-2.8 1.5-4 0-1.3 0.4-2.1 0.8-1.9 0.4 0.2 1.4 2.2 2.2 4.5 1 2.6 1.8 3.7 2.3 2.9 0.6-1 1-1 1.8 0.2 0.5 0.8 0.8 3.8 0.6 6.5-0.3 2.8-0.8 6.4-1.2 8l-0.8 3c6.7-5.4 9.7-8.7 11-10.7 1.3-2.1 4.8-6.2 7.8-9 3-2.9 5.5-6 5.5-6.8 0-0.8 1.1-3.1 2.4-5 1.3-1.9 3.1-5.3 4.1-7.5 0.9-2.2 2.5-6.7 3.6-10 1-3.3 2.1-9.6 2.3-14 0.2-5.1 0-8.5-0.7-9.3-0.7-0.7-2-1.3-2.9-1.2-1 0-3.5 1.6-5.5 3.6-2.1 2-6.7 5.3-10.3 7.4-3.5 2.1-9.4 4.8-13 6-5.6 2-7.8 2.2-16 1.7-5.2-0.3-10.1-0.8-11-1.1-1-0.4-1.5 0.1-1.7 1.6-0.1 1.3-0.9 4.2-1.7 6.6-1.1 3-2.1 4.2-3.6 4.2-1.1 0-2 0.5-2 1 0 0.5-0.6 1-1.5 1-0.8 0-1.5-0.5-1.5-1 0-0.5-0.3-0.9-0.7-0.9-0.4 0.1-1.3 0.1-2 0-0.7 0-1.3-0.8-1.3-1.6 0-0.8-0.4-1.5-1-1.5-0.6 0-0.8-2.6-0.6-6.7l0.4-6.8c-8.6-4.6-13.8-8.9-17.2-12.5-3.3-3.6-7.2-8.1-8.7-10-1.4-1.9-2.9-4.4-3.2-5.5-0.6-1.7-0.3-1.6 1.4 0.5 1.2 1.4 3.3 3.9 4.8 5.5 1.5 1.6 5.7 5.6 9.2 8.9 3.5 3.2 8.2 6.6 10.4 7.6 2.2 1 5.4 2.2 7 2.8 1.7 0.6 5.7 1.6 9 2.2 3.3 0.5 8.5 1.2 11.5 1.4 3.1 0.1 8 0 11-0.4 3.1-0.4 8.5-2.1 12-3.8 3.6-1.7 8.7-4.7 11.3-6.6 2.6-2 4.7-3.9 4.7-4.3 0-0.5-2.8-1.7-6.2-2.8-3.5-1-8.5-3.1-11.3-4.5-4.5-2.4-5.7-2.6-14-2.1-7.5 0.3-10 0.1-15-1.8-3.3-1.1-7.1-3.2-8.5-4.4-2.1-2-3.1-2.2-7-1.6-2.4 0.4-5.6 0.6-7 0.4-1.3-0.2-4.7-0.6-7.5-1-2.7-0.3-7.3-1.2-10.2-2-2.9-0.8-5.5-1.9-5.8-2.5-0.2-0.5-0.2-1 0-1 0.3 0 1.8 0.5 3.3 1.1 1.5 0.6 4.8 1.3 7.2 1.7 2.5 0.3 7.5 0.6 11 0.6 3.6 0.1 8.3-0.3 10.5-0.7 3.6-0.6 4.5-0.4 8 2.4 2.2 1.7 5.2 3.5 6.5 4.1 1.4 0.5 5.7 0.9 9.5 0.9 3.9 0 8.4-0.3 10-0.6l3-0.7c-8.1-3.7-11.7-6-13.2-7.5-2.7-2.5-3.1-2.6-11.3-2-6.4 0.4-9.2 0.2-11.2-0.9-1.5-0.8-3-1.9-3.4-2.6-0.4-0.9-1.2-0.9-3.2 0.1-2 0.9-3.7 1-6.7 0.2-2.2-0.6-4.7-1.1-5.6-1.1-0.8 0-1.8 0.3-2.1 0.6-0.4 0.4-3.7 0.8-7.4 1.1zm196.5-17.2c2.9 1.6 5.3 3.2 5.2 3.7 0 0.4 0.3 0.6 0.7 0.3 0.4-0.2 3 1 5.7 2.7 2.8 1.7 5.3 3.3 5.5 3.7 0.3 0.4 1.7 1.2 3 1.8 1.4 0.7 5.7 3.1 9.5 5.3 3.9 2.2 7.9 4.4 9 4.9 1.1 0.5 7.2 3.3 13.5 6.4 6.4 3 14.5 6.5 18 7.6 3.6 1.2 7.2 2.1 8 2.1 0.9 0 2 0.4 2.5 0.8 0.6 0.5 6 1.9 12 3 6.1 1.2 18.2 3.2 27 4.6 8.8 1.4 20.1 3 25 3.6 5 0.6 10.8 1.3 13 1.6 2.5 0.3 5.9 2 9 4.4 2.8 2 6.2 4.7 7.5 5.9 1.4 1.2 4.7 4.3 7.4 6.9 2.6 2.6 5.8 6.3 6.9 8.2 1.2 1.9 2.4 3.7 2.7 4 0.3 0.3 0.6 1 0.7 1.5 0.1 0.5 2.2 5.3 4.5 10.5 2.4 5.2 4.7 9.6 5.1 9.8 0.4 0.1 0.7 1.4 0.7 3 0 1.5 0.3 3.1 0.8 3.5 0.4 0.5 0.8 1.6 0.8 2.5 0.1 1 0.4 4.7 0.8 8.5 0.3 3.7 0.3 6.5-0.1 6.3-0.4-0.2-1.1-2.6-1.6-5.2-0.4-2.7-1.9-8.3-3.3-12.4-1.4-4.1-5.1-11.8-8.1-17-3.1-5.2-7-11.3-8.7-13.5-1.6-2.2-4.2-5-5.5-6.3-1.4-1.3-4.3-3.6-6.5-5-2.1-1.5-4.6-3.1-5.5-3.7-0.8-0.5-1.8-1.2-2.1-1.5-0.2-0.3-1.5-1.1-2.7-1.7-1.3-0.7-5.1-1.3-8.5-1.3-3.5 0-12.8-0.7-20.8-1.5-7.9-0.9-18.1-2.3-22.5-3.1-4.4-0.8-13.6-3.1-20.5-5.1-6.8-2-15.4-4.8-19-6.3-3.5-1.5-13-6.2-21-10.4-7.9-4.3-19-10.7-24.5-14.4-5.5-3.6-13.8-9.5-18.5-13-4.6-3.6-8.9-7-9.5-7.5-0.5-0.5 1.4 0.3 4.4 1.8zm-89.6 174.5c0.4 0 0.7 1 0.7 2.3 0 1.2-0.6 3-1.3 3.9-0.6 0.9-2.9 2.3-4.9 3.2-2.1 0.9-6.5 1.6-16.3 1.6l-4.2 21.5c-2.4 11.8-4.3 22.4-4.3 23.5 0 1.1-0.6 2.2-1.5 2.5-0.8 0.3-2.6 0.5-4 0.5-1.3 0-2.5-0.3-2.5-0.7 0-0.5 2-11.2 4.5-23.8 2.5-12.6 4.5-23.1 4.5-23.2 0-0.2-2.3-0.3-5.2-0.3-2.9 0.1-7.2 0.4-9.5 0.8-2.6 0.4-4.2 0.3-4.2-0.3 0-0.5 0.7-1.9 1.5-3 1.4-1.8 3-2 40.4-3l2.7-2.7c1.5-1.6 3.1-2.8 3.6-2.8zm26 6c0.4 0 0.7 0.2 0.7 0.5 0 0.3-0.8 1.7-1.7 3.1-1 1.4-3.8 3.9-6.3 5.5-2.4 1.6-4.8 2.6-5.2 2.4-0.4-0.3-0.8-1.6-0.8-3 0-2 0.8-2.7 3.8-3.6 2-0.7 4.9-2 6.2-3 1.4-1 2.9-1.9 3.3-1.9zm47 13c0.9 0 2.4 0.2 3.2 0.5 0.9 0.3 1.5 1.5 1.5 2.8 0 1.2-1 3.2-2.2 4.4-2.2 2.2-2.4 2.2-4.1 0.5-1.7-1.6-1.9-1.6-5.2 0.1-1.9 0.9-5.2 4.1-7.4 7-2.2 2.8-5.7 8.6-7.8 12.7-2.2 4.1-4.2 8.5-4.6 9.8-0.5 1.5-1.4 2.2-3.2 2.2-1.4 0-2.7-0.7-3.1-1.7-0.4-1 0.3-6.5 1.5-12.3 1.2-5.8 2.1-11.3 2.1-12.2 0-1-2.2 1.5-4.9 5.5-2.7 3.9-7.4 9.6-10.5 12.5-3 2.8-7.1 5.9-9.1 6.7-1.9 0.8-4.6 1.5-6 1.5-1.3 0-3.6-1.1-5-2.5-1.9-1.9-2.5-3.5-2.5-6.7 0-2.4 0.7-7.7 1.6-11.8 0.8-4.1 1.4-8.6 1.2-10-0.2-2.2 0.1-2.5 3.2-2.5 3 0 3.6 0.4 3.8 2.5 0.2 1.4-0.6 6.8-1.6 12-1.1 5.2-1.6 10.3-1.3 11.3 0.3 1 1.4 2 2.4 2.2 0.9 0.3 3.2-0.2 5-1.2 1.8-0.9 5.6-4.1 8.6-7.2 2.9-3.1 6.9-8.2 9-11.3 2.6-4.2 4.1-5.6 5.4-5.3 1.4 0.4 1.7-0.1 1.5-2.2-0.2-2.5 0.1-2.8 3-3 1.8-0.2 3.5 0.2 3.8 1 0.3 0.6-0.3 5.7-1.4 11.2-1.1 5.6-1.5 9.2-0.8 8.1 0.6-1 2.7-4.4 4.7-7.5 2-3.1 5.1-7.3 7-9.5 1.9-2.1 5-4.7 6.9-5.7 2-1 4.3-1.8 5.3-1.9zm-146.3 29.9l4.3 0.3c4.2 0.3 4.2 0.4 4 3.8-0.1 1.9-0.3 3.6-0.5 3.8-0.1 0.1-1.8 0.3-3.8 0.5-3.4 0.2-3.5 0.2-3.7-4.1zm-15.5-191.3c2.2 0.3 9.1 2 15.3 3.8 6.2 1.7 13.4 3.8 16 4.5 2.6 0.7 5.7 1.5 6.9 1.7 1.3 0.2 3.5 0.9 5 1.5 1.5 0.6 2.9 1 3 1 0.2-0.1 1.6-0.1 3.3-0.1 1.6 0 2.8 0.5 2.5 1-0.3 0.6-1.8 0.8-3.3 0.6-1.5-0.2-5-0.6-7.7-1-2.8-0.3-6.8-0.8-9-1.1-2.2-0.3-6.3-1.1-9-1.9-2.8-0.8-10-3.5-16-6-7.7-3.3-9.8-4.5-7-4z"/>
</svg>